<?xml version="1.0" encoding="UTF-8" standalone="no"?>
<!-- Created with Inkscape (http://www.inkscape.org/) -->

<svg
   width="210mm"
   height="297mm"
   viewBox="0 0 793.70081 1122.5197"
   version="1.1"
   id="svg1"
   inkscape:version="1.3.2 (091e20ef0f, 2023-11-25)"
   sodipodi:docname="bg.svg"
   inkscape:export-filename="bg.png"
   inkscape:export-xdpi="96"
   inkscape:export-ydpi="96"
   xmlns:inkscape="http://www.inkscape.org/namespaces/inkscape"
   xmlns:sodipodi="http://sodipodi.sourceforge.net/DTD/sodipodi-0.dtd"
   xmlns="http://www.w3.org/2000/svg"
   xmlns:svg="http://www.w3.org/2000/svg">
  <sodipodi:namedview
     id="namedview1"
     pagecolor="#505050"
     bordercolor="#ffffff"
     borderopacity="1"
     inkscape:showpageshadow="0"
     inkscape:pageopacity="0"
     inkscape:pagecheckerboard="1"
     inkscape:deskcolor="#505050"
     inkscape:document-units="mm"
     inkscape:zoom="0.41263278"
     inkscape:cx="256.88701"
     inkscape:cy="1193.5552"
     inkscape:window-width="2560"
     inkscape:window-height="1468"
     inkscape:window-x="0"
     inkscape:window-y="40"
     inkscape:window-maximized="1"
     inkscape:current-layer="layer3" />
  <defs
     id="defs1" />
  <g
     inkscape:groupmode="layer"
     id="layer2"
     inkscape:label="Layer 2"
     transform="translate(-2.2941929e-6)">
    <rect
       style="fill:#ffffff;stroke:none;stroke-width:37.7953;paint-order:stroke fill markers"
       id="rect7"
       width="838.45123"
       height="1188.4514"
       x="-15.091064"
       y="-26.587637" />
  </g>
  <g
     inkscape:label="Layer 1"
     inkscape:groupmode="layer"
     id="layer1"
     transform="matrix(0.79499784,0.09545042,-0.09545042,0.79499784,229.53719,9.4352675)">
    <path
       style="fill:#f1e9f1;stroke:none;stroke-width:37.7953;paint-order:stroke fill markers"
       d="m 61.983302,-231.66548 c 0,0 114.903368,527.66599 325.735418,842.04252 418.01416,623.31056 861.00798,714.76526 861.00798,714.76526 l -22.7404,444.2293 -1605.42981,-76.0798 161.43022,-1944.19653 z"
       id="path7"
       sodipodi:nodetypes="csccccc" />
    <path
       style="fill:#e4d3e2;stroke:none;stroke-width:37.7953;paint-order:stroke fill markers"
       d="m 20.488057,-209.46502 c 0,0 114.903363,527.66598 325.735413,842.04251 418.01416,623.31051 861.00793,714.76521 861.00793,714.76521 l -22.7404,444.2293 -1605.42976,-76.0798 161.43022,-1944.19647 z"
       id="path7-6"
       sodipodi:nodetypes="csccccc" />
    <path
       style="fill:#cfb1cd;stroke:none;stroke-width:37.7953;paint-order:stroke fill markers"
       d="m -36.577464,-175.85457 c 0,0 114.903367,527.66599 325.735414,842.04252 418.01416,623.31055 861.00795,714.76525 861.00795,714.76525 l -22.7404,444.2293 -1605.42978,-76.0798 161.43022,-1944.19652 z"
       id="path7-9"
       sodipodi:nodetypes="csccccc" />
    <path
       style="fill:#c29bbe;stroke:none;stroke-width:37.7953;paint-order:stroke fill markers"
       d="m -127.92649,-129.75636 c 0,0 114.903373,527.66599 325.73542,842.04252 418.01416,623.31054 861.00797,714.76524 861.00797,714.76524 l -22.7404,444.2293 -1605.4298,-76.0798 161.43022,-1944.19651 z"
       id="path7-3"
       sodipodi:nodetypes="csccccc" />
    <path
       style="fill:#ad7aa9;stroke:none;stroke-width:37.7953;paint-order:stroke fill markers"
       d="m -228.60022,-74.111945 c 0,0 114.90337,527.665995 325.735423,842.042525 C 515.14936,1391.2411 958.14318,1482.6958 958.14318,1482.6958 l -22.7404,444.2293 -1605.42981,-76.0798 161.43022,-1944.196495 z"
       id="path7-2"
       sodipodi:nodetypes="csccccc" />
    <path
       style="fill:#a0649a;stroke:none;stroke-width:37.7953;paint-order:stroke fill markers"
       d="m -328.26327,-10.362434 c 0,0 114.90337,527.665994 325.7354168,842.042524 C 415.48631,1454.9906 858.48013,1546.4453 858.48013,1546.4453 l -22.7404,444.2293 -1605.42981,-76.0798 161.43022,-1944.196484 z"
       id="path7-7"
       sodipodi:nodetypes="csccccc" />
    <path
       style="fill:#924d8c;stroke:none;stroke-width:37.7953;paint-order:stroke fill markers"
       d="m -454.87636,71.111582 c 0,0 114.90337,527.665988 325.73542,842.042518 418.01416,623.3106 861.00798,714.7653 861.00798,714.7653 l -22.7404,444.2293 -1605.42981,-76.0798 161.43022,-1944.196568 z"
       id="path7-29"
       sodipodi:nodetypes="csccccc" />
    <path
       style="fill:#85377d;stroke:none;stroke-width:37.7953;paint-order:stroke fill markers"
       d="m -631.94672,170.11984 c 0,0 114.90337,527.66599 325.73542,842.04256 418.01416,623.3105 861.00798,714.7652 861.00798,714.7652 l -22.7404,444.2293 -1605.42988,-76.0798 161.43029,-1944.19651 z"
       id="path7-4"
       sodipodi:nodetypes="csccccc" />
    <path
       style="display:inline;fill:#77216f;stroke:none;stroke-width:37.7953;paint-order:stroke fill markers"
       d="m -621.41184,146.16635 c 0,0 114.90337,527.66599 325.73542,842.04252 418.01416,623.31053 861.00798,714.76523 861.00798,714.76523 l -22.7404,444.2293 -1605.42986,-76.0798 161.43027,-1944.1965 z"
       id="path7-5"
       sodipodi:nodetypes="csccccc" />
    <path
       style="display:inline;fill:#77216f;stroke:none;stroke-width:37.7953;paint-order:stroke fill markers"
       d="m -676.57321,174.23926 c 0,0 114.90337,527.66599 325.73542,842.04254 418.01416,623.3105 861.00798,714.7652 861.00798,714.7652 L 487.42979,2175.2763 -1118,2099.1965 -956.5698,155.00001 Z"
       id="path7-1"
       sodipodi:nodetypes="csccccc" />
  </g>
  <g
     inkscape:groupmode="layer"
     id="layer3"
     inkscape:label="Layer 3">
    <rect
       style="fill:#ffffff;stroke-width:37.7953;paint-order:stroke fill markers;opacity:0.452"
       id="rect1"
       width="1813.4034"
       height="2413.8689"
       x="-476.63434"
       y="-515.97833" />
  </g>
</svg>
