<?xml version="1.0" encoding="UTF-8" standalone="no"?>
<!-- Created with Inkscape (http://www.inkscape.org/) -->

<svg
   width="512"
   height="512"
   viewBox="0 0 512 512"
   version="1.1"
   id="svg1"
   inkscape:version="1.3.2 (091e20ef0f, 2023-11-25)"
   sodipodi:docname="icon.svg"
   inkscape:export-filename="icon.png"
   inkscape:export-xdpi="96"
   inkscape:export-ydpi="96"
   xmlns:inkscape="http://www.inkscape.org/namespaces/inkscape"
   xmlns:sodipodi="http://sodipodi.sourceforge.net/DTD/sodipodi-0.dtd"
   xmlns:xlink="http://www.w3.org/1999/xlink"
   xmlns="http://www.w3.org/2000/svg"
   xmlns:svg="http://www.w3.org/2000/svg">
  <sodipodi:namedview
     id="namedview1"
     pagecolor="#505050"
     bordercolor="#ffffff"
     borderopacity="1"
     inkscape:showpageshadow="0"
     inkscape:pageopacity="0"
     inkscape:pagecheckerboard="1"
     inkscape:deskcolor="#505050"
     inkscape:document-units="px"
     inkscape:zoom="1.4142136"
     inkscape:cx="265.87215"
     inkscape:cy="270.46834"
     inkscape:window-width="2560"
     inkscape:window-height="1468"
     inkscape:window-x="0"
     inkscape:window-y="40"
     inkscape:window-maximized="1"
     inkscape:current-layer="layer3" />
  <defs
     id="defs1">
    <rect
       x="22.251757"
       y="155.93066"
       width="563.9241"
       height="299.24507"
       id="rect7" />
    <linearGradient
       id="linearGradient6"
       inkscape:collect="always">
      <stop
         style="stop-color:#784421;stop-opacity:1;"
         offset="0"
         id="stop6" />
      <stop
         style="stop-color:#502d16;stop-opacity:1"
         offset="1"
         id="stop7" />
    </linearGradient>
    <linearGradient
       id="linearGradient2"
       inkscape:collect="always">
      <stop
         style="stop-color:#55ddff;stop-opacity:1;"
         offset="0"
         id="stop2" />
      <stop
         style="stop-color:#006680;stop-opacity:1"
         offset="1"
         id="stop3" />
    </linearGradient>
    <linearGradient
       inkscape:collect="always"
       xlink:href="#linearGradient2"
       id="linearGradient3"
       x1="41.322777"
       y1="37.984749"
       x2="357.23489"
       y2="351.57016"
       gradientUnits="userSpaceOnUse"
       gradientTransform="matrix(0.98302113,0,0,0.98302113,-569.97206,-251.44438)" />
    <linearGradient
       inkscape:collect="always"
       xlink:href="#linearGradient6"
       id="linearGradient7"
       x1="352.0943"
       y1="213.68808"
       x2="580.87329"
       y2="215.28047"
       gradientUnits="userSpaceOnUse"
       gradientTransform="translate(-265.67463,163.08616)" />
  </defs>
  <g
     inkscape:groupmode="layer"
     id="layer7"
     inkscape:label="Logo"
     transform="matrix(1.0604805,0,0,1.0604805,-6.4778598,-39.10534)">
    <g
       inkscape:groupmode="layer"
       id="layer6"
       inkscape:label="Text"
       style="display:inline">
      <path
         style="opacity:1;fill:#ffffff;fill-opacity:1;stroke:#000000;stroke-width:5.21465;stroke-dasharray:none;stroke-opacity:1;paint-order:stroke fill markers"
         d="m 356.32451,276.85649 c 0,0 -0.41464,5.4197 -1.87366,20.02727 -1.45895,14.60757 -2.54193,26.60648 -13.86993,29.69188 -17.98723,4.89918 -38.45628,13.08558 -62.49208,5.53547 -24.03579,-7.55011 -36.15105,-21.97077 -39.60717,-32.44425 -3.45613,-10.47349 -10.65872,-40.44613 -8.71551,-55.6102 2.41168,-18.81993 2.2031,-36.30661 11.81525,-51.82846 9.61216,-15.52186 22.39538,-31.04054 36.75219,-35.15727 14.35681,-4.11672 36.54462,-5.94445 49.3973,-0.3889 12.85267,5.55555 37.26171,15.52964 22.89339,27.02888 -8.28967,6.63438 -10.4634,1.2839 -25.7651,-4.65612 -15.3017,-5.94003 -38.93044,-3.21292 -45.22486,2.56886 -8.93533,8.20762 -18.15377,21.41034 -20.92304,37.1945 -2.76927,15.78415 -5.87436,37.41553 -0.28589,59.10952 3.39537,13.18048 9.54265,26.72545 23.58438,30.28346 14.04172,3.55802 39.44126,0.64737 43.23447,-2.84297 3.79322,-3.49035 2.24316,-12.82003 3.021,-24.06968 0.77044,-11.14897 2.52532,-26.38733 -6.66153,-26.92547 -11.88033,-0.69591 -25.82458,-4.10516 -26.84532,-9.74797 -2.46342,-13.61823 3.30975,-13.46807 21.1749,-11.94628 40.0476,3.41134 42.60187,-4.54618 41.6432,18.26988 -0.1362,3.24249 -0.46241,12.01581 -0.46241,12.01581 z"
         id="path44"
         sodipodi:nodetypes="csssssssssssssssssssscc"
         inkscape:label="G" />
      <path
         style="display:inline;opacity:1;fill:#ffffff;fill-opacity:1;stroke:#000000;stroke-width:5;stroke-dasharray:none;stroke-opacity:1;paint-order:stroke fill markers"
         d="m 171.18354,194.58704 c 0,0 11.72074,0.26379 24.46713,0.12336 12.7464,-0.14043 14.79245,1.12241 14.96681,9.10279 0.17436,7.98037 -15.91819,27.20832 -22.91,38.57282 -6.99181,11.36449 -32.29929,50.10158 -33.90667,52.90264 -2.86979,5.00097 1.00304,4.80021 16.89896,4.97698 15.89592,0.17678 42.55945,-3.8249 42.58412,7.85835 0.0246,11.6394 -11.44602,9.35598 -34.17555,8.85966 -22.72953,-0.49632 -30.36037,0.53476 -38.48777,0.18646 -1.65439,-0.0709 -13.60546,-0.39471 -13.46069,-7.52384 0.17207,-8.47333 -0.0551,-9.03562 12.8304,-27.21565 12.88555,-18.18002 31.9929,-46.04803 38.09542,-55.03237 4.5516,-6.70103 15.23125,-17.98757 2.11535,-17.32252 -14.35923,0.72809 -33.57788,0.18157 -38.68731,0.0849 -5.10944,-0.0966 -13.71002,1.17665 -13.55414,-6.95713 0.15587,-8.13379 7.60283,-10.25834 14.90276,-9.92301 7.29993,0.33532 28.32118,1.30653 28.32118,1.30653 z"
         id="path43"
         sodipodi:nodetypes="cssssssssssssssscc"
         inkscape:label="Z" />
      <path
         style="display:inline;opacity:1;fill:#ffffff;fill-opacity:1;stroke:#000000;stroke-width:5;stroke-dasharray:none;stroke-opacity:1;paint-order:stroke fill markers"
         d="m 27.320841,254.64209 c 0,0 -2.724069,13.9425 -4.873284,28.64549 -2.149216,14.703 -7.084261,27.07939 -1.897073,31.68282 5.187187,4.60342 10.175328,1.29686 11.540005,-1.56073 2.416753,-5.06059 6.972546,-24.96241 7.914295,-31.99627 0.937416,-7.0015 1.739051,-17.45884 6.735633,-18.44349 4.996582,-0.98465 20.012494,0.42696 25.597252,0.89983 4.368256,0.36987 11.519,0.31944 9.569426,13.08123 -4.331404,28.35312 -6.595942,39.71526 -2.093642,40.57104 4.926109,0.93634 8.392772,0.55231 10.067775,-1.91691 1.675003,-2.46927 2.645391,-6.33938 4.558996,-23.65875 1.913605,-17.31938 7.721956,-49.33115 10.056726,-63.65423 2.33476,-14.32309 8.782,-34.06635 -0.10803,-35.52284 -8.614169,-1.41129 -9.075315,7.63491 -11.391019,16.89785 -2.315704,9.26295 -4.311367,22.16856 -5.445779,28.68535 -1.129984,6.49136 -1.863649,13.30764 -7.189062,12.98453 -7.993199,-0.48498 -10.381956,-0.89506 -19.078858,-1.65051 -9.688314,-0.84157 -16.378811,1.22641 -16.614814,-4.18559 -0.370001,-8.48522 2.721177,-17.07015 4.40564,-27.32467 1.659156,-10.10046 4.643782,-24.7727 -3.060186,-25.46912 -7.272449,-0.6574 -11.569899,13.5943 -12.983305,25.03241 -1.434875,11.61185 -4.072381,23.48231 -4.072381,23.48231 z"
         id="path42"
         sodipodi:nodetypes="csssssssssssssssssssscc"
         inkscape:label="H" />
    </g>
    <g
       inkscape:groupmode="layer"
       id="layer3"
       inkscape:label="Magnifying Glass"
       style="display:inline"
       transform="matrix(-0.08448257,0.66675815,-0.66675815,-0.08448257,523.43718,107.66277)">
      <g
         inkscape:groupmode="layer"
         id="layer5"
         inkscape:label="Handle">
        <rect
           style="opacity:1;fill:url(#linearGradient7);fill-opacity:1;stroke:#000000;stroke-width:10;stroke-dasharray:none;stroke-opacity:1;paint-order:normal"
           id="rect5"
           width="216.9734"
           height="50.264309"
           x="92.164581"
           y="352.56137"
           ry="20.76833"
           rx="49.26025"
           inkscape:label="Wood"
           transform="rotate(-48.692093)" />
      </g>
      <g
         inkscape:groupmode="layer"
         id="layer4"
         inkscape:label="Glass"
         style="display:inline;opacity:0.5"
         transform="rotate(-10.501527,240.21624,297.19003)">
        <circle
           style="opacity:1;fill:url(#linearGradient3);fill-opacity:1;stroke-width:1.30879"
           id="path1"
           cx="-376.14944"
           cy="-61.237446"
           r="152.20241"
           inkscape:label="Material"
           transform="rotate(-138.69209)" />
      </g>
      <path
         style="display:inline;opacity:1;fill:#ffffff;fill-opacity:1;stroke:none;stroke-width:16.215;stroke-dasharray:none;stroke-opacity:1;paint-order:normal"
         d="m 155.65899,409.62931 c 11.73061,8.40238 20.42335,13.62706 26.70537,15.88062 6.28203,2.25359 12.24825,1.67509 15.03367,-0.0793 2.78544,-1.75435 4.84136,-5.09427 2.09525,-8.21238 -1.84297,-2.09262 -7.42512,-1.78931 -17.4141,-5.44532 -9.989,-3.65602 -19.17372,-8.45916 -22.66312,-15.28747 -3.4894,-6.82834 -5.96754,-6.61324 -8.94693,-6.09963 -2.70362,0.46609 -5.87387,5.7493 -3.17369,10.07311 2.70018,4.3238 8.36355,9.17035 8.36355,9.17035 z"
         id="path4"
         sodipodi:nodetypes="csssssssc"
         inkscape:label="large specular"
         transform="rotate(-10.501527,240.21624,297.19003)" />
      <path
         style="display:inline;opacity:1;fill:#ffffff;fill-opacity:1;stroke:none;stroke-width:10.891;stroke-dasharray:none;stroke-opacity:1;paint-order:normal"
         d="m 316.95853,175.50519 c -2.93714,1.33751 -3.10874,3.82724 -2.35034,5.61955 0.61102,1.44404 5.71236,4.08102 7.28667,3.40849 2.47527,-1.05744 3.59887,-3.30855 2.16234,-6.37378 -1.55957,-3.32769 -3.97947,-4.07465 -7.09867,-2.65426 z"
         id="path5"
         sodipodi:nodetypes="sssss"
         inkscape:label="small bobr"
         transform="rotate(-10.501527,240.21624,297.19003)" />
      <ellipse
         style="display:inline;opacity:1;fill:none;stroke:#000000;stroke-width:10;stroke-dasharray:none;stroke-opacity:1;paint-order:normal"
         id="path2"
         cx="-61.818176"
         cy="376.5798"
         rx="153.89607"
         ry="150.39389"
         inkscape:label="Outline"
         transform="rotate(-48.692093)" />
    </g>
  </g>
</svg>
