<svg xmlns:xlink="http://www.w3.org/1999/xlink" version="1.1" class="highcharts-root" style="font-family: &quot;Statis Sans&quot;, sans-serif; font-size: 13.3px; color: rgb(36, 36, 36); fill: rgb(36, 36, 36);" xmlns="http://www.w3.org/2000/svg" width="768" height="432" viewBox="0 0 768 432" aria-label="Interactive chart" aria-hidden="false"><desc aria-hidden="true">Created with Highcharts 10.3.3</desc><defs aria-hidden="true"><clipPath id="highcharts-mvtgp5s-53-"><rect x="0" y="0" width="658" height="214" fill="none"></rect></clipPath><clipPath id="highcharts-mvtgp5s-68-"><rect x="0" y="0" width="658" height="214" fill="none"></rect></clipPath><clipPath id="highcharts-mvtgp5s-97-"><rect x="40" y="99" width="658" height="214" fill="none"></rect></clipPath></defs><rect fill="white" class="highcharts-background" x="0" y="0" width="768" height="432" rx="0" ry="0" aria-hidden="true"></rect><rect fill="none" class="highcharts-plot-background" x="40" y="99" width="658" height="214" aria-hidden="true"></rect><g transform="translate(40,407)" class="js-destatis-copyright" aria-hidden="true"><g transform="translate(12,0)"><rect x="1" y="1" width="2" height="6" fill="#1D1D1B"></rect><rect x="5" y="3" width="2" height="4" fill="#CD1531"></rect><rect x="9" y="0" width="2" height="7" fill="#FCC200"></rect><rect x="1" y="8" width="10" height="2" fill="#B1B1B1"></rect></g><text x="0" y="11" fill="#242424" font-size="13.3px" font-family="&quot;Statis Sans&quot;">©</text><text x="27" y="9" fill="#242424" font-size="13.3px" font-family="&quot;Statis Sans&quot;">Statistisches Bundesamt (Destatis), 2025</text></g><g class="highcharts-pane-group" data-z-index="0" aria-hidden="true"></g><g class="highcharts-grid highcharts-xaxis-grid" data-z-index="1" aria-hidden="true"><path fill="none" stroke="#f2f2f2" stroke-width="0" stroke-dasharray="none" class="highcharts-minor-grid-line" d="M 69.5 99 L 69.5 313" opacity="1"></path><path fill="none" stroke="#f2f2f2" stroke-width="0" stroke-dasharray="none" class="highcharts-minor-grid-line" d="M 115.5 99 L 115.5 313" opacity="1"></path><path fill="none" stroke="#f2f2f2" stroke-width="0" stroke-dasharray="none" class="highcharts-minor-grid-line" d="M 161.5 99 L 161.5 313" opacity="1"></path><path fill="none" stroke="#f2f2f2" stroke-width="0" stroke-dasharray="none" class="highcharts-minor-grid-line" d="M 207.5 99 L 207.5 313" opacity="1"></path><path fill="none" stroke="#f2f2f2" stroke-width="0" stroke-dasharray="none" class="highcharts-minor-grid-line" d="M 253.5 99 L 253.5 313" opacity="1"></path><path fill="none" stroke="#f2f2f2" stroke-width="0" stroke-dasharray="none" class="highcharts-minor-grid-line" d="M 299.5 99 L 299.5 313" opacity="1"></path><path fill="none" stroke="#f2f2f2" stroke-width="0" stroke-dasharray="none" class="highcharts-minor-grid-line" d="M 345.5 99 L 345.5 313" opacity="1"></path><path fill="none" stroke="#f2f2f2" stroke-width="0" stroke-dasharray="none" class="highcharts-minor-grid-line" d="M 391.5 99 L 391.5 313" opacity="1"></path><path fill="none" stroke="#f2f2f2" stroke-width="0" stroke-dasharray="none" class="highcharts-minor-grid-line" d="M 437.5 99 L 437.5 313" opacity="1"></path><path fill="none" stroke="#f2f2f2" stroke-width="0" stroke-dasharray="none" class="highcharts-minor-grid-line" d="M 483.5 99 L 483.5 313" opacity="1"></path><path fill="none" stroke="#f2f2f2" stroke-width="0" stroke-dasharray="none" class="highcharts-minor-grid-line" d="M 529.5 99 L 529.5 313" opacity="1"></path><path fill="none" stroke="#f2f2f2" stroke-width="0" stroke-dasharray="none" class="highcharts-minor-grid-line" d="M 575.5 99 L 575.5 313" opacity="1"></path><path fill="none" stroke="#f2f2f2" stroke-width="0" stroke-dasharray="none" class="highcharts-minor-grid-line" d="M 621.5 99 L 621.5 313" opacity="1"></path><path fill="none" stroke="#f2f2f2" stroke-width="0" stroke-dasharray="none" class="highcharts-minor-grid-line" d="M 667.5 99 L 667.5 313" opacity="1"></path><path fill="none" stroke="#242424" stroke-width="0" stroke-dasharray="none" data-z-index="1" class="highcharts-grid-line" d="M 115.5 99 L 115.5 313" opacity="1"></path><path fill="none" stroke="#242424" stroke-width="0" stroke-dasharray="none" data-z-index="1" class="highcharts-grid-line" d="M 207.5 99 L 207.5 313" opacity="1"></path><path fill="none" stroke="#242424" stroke-width="0" stroke-dasharray="none" data-z-index="1" class="highcharts-grid-line" d="M 299.5 99 L 299.5 313" opacity="1"></path><path fill="none" stroke="#242424" stroke-width="0" stroke-dasharray="none" data-z-index="1" class="highcharts-grid-line" d="M 391.5 99 L 391.5 313" opacity="1"></path><path fill="none" stroke="#242424" stroke-width="0" stroke-dasharray="none" data-z-index="1" class="highcharts-grid-line" d="M 483.5 99 L 483.5 313" opacity="1"></path><path fill="none" stroke="#242424" stroke-width="0" stroke-dasharray="none" data-z-index="1" class="highcharts-grid-line" d="M 575.5 99 L 575.5 313" opacity="1"></path><path fill="none" stroke="#242424" stroke-width="0" stroke-dasharray="none" data-z-index="1" class="highcharts-grid-line" d="M 667.5 99 L 667.5 313" opacity="1"></path></g><g class="highcharts-grid highcharts-yaxis-grid" data-z-index="1" aria-hidden="true"><path fill="none" stroke="#242424" stroke-width="0.1" stroke-dasharray="none" data-z-index="1" class="highcharts-grid-line" d="M 40 313.05 L 698 313.05" opacity="1"></path><path fill="none" stroke="#242424" stroke-width="0.1" stroke-dasharray="none" data-z-index="1" class="highcharts-grid-line" d="M 40 277.05 L 698 277.05" opacity="1"></path><path fill="none" stroke="#242424" stroke-width="0.1" stroke-dasharray="none" data-z-index="1" class="highcharts-grid-line" d="M 40 242.05 L 698 242.05" opacity="1"></path><path fill="none" stroke="#242424" stroke-width="0.1" stroke-dasharray="none" data-z-index="1" class="highcharts-grid-line" d="M 40 206.05 L 698 206.05" opacity="1"></path><path fill="none" stroke="#242424" stroke-width="0.1" stroke-dasharray="none" data-z-index="1" class="highcharts-grid-line" d="M 40 170.05 L 698 170.05" opacity="1"></path><path fill="none" stroke="#242424" stroke-width="0.1" stroke-dasharray="none" data-z-index="1" class="highcharts-grid-line" d="M 40 135.05 L 698 135.05" opacity="1"></path><path fill="none" stroke="#242424" stroke-width="0.1" stroke-dasharray="none" data-z-index="1" class="highcharts-grid-line" d="M 40 98.95 L 698 98.95" opacity="1"></path></g><rect fill="none" class="highcharts-plot-border" data-z-index="1" stroke="#cccccc" stroke-width="0" x="40" y="99" width="658" height="214" aria-hidden="true"></rect><g class="highcharts-axis highcharts-xaxis" data-z-index="2" aria-hidden="true"><path fill="none" class="highcharts-minor-tick" stroke="#3c3c3c" stroke-width="1" d="M 69.5 313 L 69.5 319" opacity="1"></path><path fill="none" class="highcharts-minor-tick" stroke="#3c3c3c" stroke-width="1" d="M 115.5 313 L 115.5 319" opacity="1"></path><path fill="none" class="highcharts-minor-tick" stroke="#3c3c3c" stroke-width="1" d="M 161.5 313 L 161.5 319" opacity="1"></path><path fill="none" class="highcharts-minor-tick" stroke="#3c3c3c" stroke-width="1" d="M 207.5 313 L 207.5 319" opacity="1"></path><path fill="none" class="highcharts-minor-tick" stroke="#3c3c3c" stroke-width="1" d="M 253.5 313 L 253.5 319" opacity="1"></path><path fill="none" class="highcharts-minor-tick" stroke="#3c3c3c" stroke-width="1" d="M 299.5 313 L 299.5 319" opacity="1"></path><path fill="none" class="highcharts-minor-tick" stroke="#3c3c3c" stroke-width="1" d="M 345.5 313 L 345.5 319" opacity="1"></path><path fill="none" class="highcharts-minor-tick" stroke="#3c3c3c" stroke-width="1" d="M 391.5 313 L 391.5 319" opacity="1"></path><path fill="none" class="highcharts-minor-tick" stroke="#3c3c3c" stroke-width="1" d="M 437.5 313 L 437.5 319" opacity="1"></path><path fill="none" class="highcharts-minor-tick" stroke="#3c3c3c" stroke-width="1" d="M 483.5 313 L 483.5 319" opacity="1"></path><path fill="none" class="highcharts-minor-tick" stroke="#3c3c3c" stroke-width="1" d="M 529.5 313 L 529.5 319" opacity="1"></path><path fill="none" class="highcharts-minor-tick" stroke="#3c3c3c" stroke-width="1" d="M 575.5 313 L 575.5 319" opacity="1"></path><path fill="none" class="highcharts-minor-tick" stroke="#3c3c3c" stroke-width="1" d="M 621.5 313 L 621.5 319" opacity="1"></path><path fill="none" class="highcharts-minor-tick" stroke="#3c3c3c" stroke-width="1" d="M 667.5 313 L 667.5 319" opacity="1"></path><path fill="none" class="highcharts-tick" stroke="#242424" stroke-width="1" d="M 115.5 313 L 115.5 319" opacity="1"></path><path fill="none" class="highcharts-tick" stroke="#242424" stroke-width="1" d="M 207.5 313 L 207.5 319" opacity="1"></path><path fill="none" class="highcharts-tick" stroke="#242424" stroke-width="1" d="M 299.5 313 L 299.5 319" opacity="1"></path><path fill="none" class="highcharts-tick" stroke="#242424" stroke-width="1" d="M 391.5 313 L 391.5 319" opacity="1"></path><path fill="none" class="highcharts-tick" stroke="#242424" stroke-width="1" d="M 483.5 313 L 483.5 319" opacity="1"></path><path fill="none" class="highcharts-tick" stroke="#242424" stroke-width="1" d="M 575.5 313 L 575.5 319" opacity="1"></path><path fill="none" class="highcharts-tick" stroke="#242424" stroke-width="1" d="M 667.5 313 L 667.5 319" opacity="1"></path><path fill="none" class="highcharts-axis-line" stroke="#242424" stroke-width="1" data-z-index="7" d="M 40 313.5 L 698 313.5"></path></g><g class="highcharts-axis highcharts-yaxis" data-z-index="2" aria-hidden="true"><path fill="none" class="highcharts-axis-line" stroke="#242424" stroke-width="0" data-z-index="7" d="M 698 99 L 698 313"></path></g><g class="highcharts-series-group" data-z-index="3" aria-hidden="false"><g class="highcharts-series highcharts-series-0 highcharts-line-series highcharts-color-2" data-z-index="0.1" opacity="1" transform="translate(40,99) scale(1 1)" clip-path="url(#highcharts-mvtgp5s-68-)" aria-hidden="true"><path fill="none" d="M 29.909090909095 137.316666666667 L 75.92307692308 131.96666666666698 L 121.93706293707 139.1 L 167.95104895105 139.1 L 213.96503496504 130.183333333333 L 259.97902097902 117.7 L 305.99300699301 115.916666666667 L 352.00699300699 92.73333333333 L 398.02097902098 101.65 L 444.03496503496 94.51666666667 L 490.04895104895 87.38333333333 L 536.06293706293 62.41666666667001 L 582.07692307692 16.05000000000001 L 628.09090909091 10.699999999999989" class="highcharts-graph" data-z-index="1" stroke="#266ec3" stroke-width="2" stroke-linejoin="round" stroke-linecap="round"></path></g><g class="highcharts-markers highcharts-series-0 highcharts-line-series highcharts-color-2" data-z-index="0.1" opacity="1" transform="translate(40,99) scale(1 1)" clip-path="none" aria-hidden="false" role="region" tabindex="-1" style="outline: none;" aria-label="Insgesamt, line 1 of 3 with 14 data points."><path fill="#266ec3" d="M 29 140 A 3 3 0 1 1 29.002999999500002 139.99999850000012 Z" stroke="#ffffff" stroke-width="0" opacity="0" class="highcharts-point highcharts-color-2" tabindex="-1" style="outline: none;" role="img" aria-label="x, 2009, 4,3. Insgesamt."></path><path fill="#266ec3" d="M 75 135 A 3 3 0 1 1 75.0029999995 134.99999850000012 Z" stroke="#ffffff" stroke-width="0" opacity="0" class="highcharts-point highcharts-color-2" tabindex="-1" style="outline: none;" role="img" aria-label="x, 2010, 4,6. Insgesamt."></path><path fill="#266ec3" d="M 121 142 A 3 3 0 1 1 121.0029999995 141.99999850000012 Z" stroke="#ffffff" stroke-width="0" opacity="0" class="highcharts-point highcharts-color-2" tabindex="-1" style="outline: none;" role="img" aria-label="x, 2011, 4,2. Insgesamt."></path><path fill="#266ec3" d="M 167 142 A 3 3 0 1 1 167.0029999995 141.99999850000012 Z" stroke="#ffffff" stroke-width="0" opacity="0" class="highcharts-point highcharts-color-2" tabindex="-1" style="outline: none;" role="img" aria-label="x, 2012, 4,2. Insgesamt."></path><path fill="#266ec3" d="M 213 133 A 3 3 0 1 1 213.0029999995 132.99999850000012 Z" stroke="#ffffff" stroke-width="0" opacity="0" class="highcharts-point highcharts-color-2" tabindex="-1" style="outline: none;" role="img" aria-label="x, 2013, 4,7. Insgesamt."></path><path fill="#266ec3" d="M 259 121 A 3 3 0 1 1 259.0029999995 120.99999850000013 Z" stroke="#ffffff" stroke-width="0" opacity="0" class="highcharts-point highcharts-color-2" tabindex="-1" style="outline: none;" role="img" aria-label="x, 2014, 5,4. Insgesamt."></path><path fill="#266ec3" d="M 305 119 A 3 3 0 1 1 305.0029999995 118.99999850000013 Z" stroke="#ffffff" stroke-width="0" opacity="0" class="highcharts-point highcharts-color-2" tabindex="-1" style="outline: none;" role="img" aria-label="x, 2015, 5,5. Insgesamt."></path><path fill="#266ec3" d="M 352 96 A 3 3 0 1 1 352.0029999995 95.99999850000013 Z" stroke="#ffffff" stroke-width="0" opacity="0" class="highcharts-point highcharts-color-2" tabindex="-1" style="outline: none;" role="img" aria-label="x, 2016, 6,8. Insgesamt."></path><path fill="#266ec3" d="M 398 105 A 3 3 0 1 1 398.0029999995 104.99999850000013 Z" stroke="#ffffff" stroke-width="0" opacity="0" class="highcharts-point highcharts-color-2" tabindex="-1" style="outline: none;" role="img" aria-label="x, 2017, 6,3. Insgesamt."></path><path fill="#266ec3" d="M 444 98 A 3 3 0 1 1 444.0029999995 97.99999850000013 Z" stroke="#ffffff" stroke-width="0" opacity="0" class="highcharts-point highcharts-color-2" tabindex="-1" style="outline: none;" role="img" aria-label="x, 2018, 6,7. Insgesamt."></path><path fill="#266ec3" d="M 490 90 A 3 3 0 1 1 490.0029999995 89.99999850000013 Z" stroke="#ffffff" stroke-width="0" opacity="0" class="highcharts-point highcharts-color-2" tabindex="-1" style="outline: none;" role="img" aria-label="x, 2019, 7,1. Insgesamt."></path><path fill="#266ec3" d="M 536 65 A 3 3 0 1 1 536.0029999995 64.99999850000013 Z" stroke="#ffffff" stroke-width="0" opacity="0" class="highcharts-point highcharts-color-2" tabindex="-1" style="outline: none;" role="img" aria-label="x, 2020, 8,5. Insgesamt."></path><path fill="#266ec3" d="M 582 19 A 3 3 0 1 1 582.0029999995 18.999998500000125 Z" stroke="#ffffff" stroke-width="0" opacity="0" class="highcharts-point highcharts-color-2" tabindex="-1" style="outline: none;" role="img" aria-label="x, 2021, 11,1. Insgesamt."></path><path fill="#266ec3" d="M 628 14 A 3 3 0 1 1 628.0029999995 13.999998500000125 Z" stroke="#ffffff" stroke-width="0" opacity="0" class="highcharts-point highcharts-color-2" tabindex="-1" style="outline: none;" role="img" aria-label="x, 2022, 11,4. Insgesamt."></path></g><g class="highcharts-series highcharts-series-1 highcharts-line-series highcharts-color-10" data-z-index="0.1" opacity="1" transform="translate(40,99) scale(1 1)" clip-path="url(#highcharts-mvtgp5s-68-)" aria-hidden="true"><path fill="none" d="M 29.909090909095 162.283333333333 L 75.92307692308 153.36666666666702 L 121.93706293707 151.583333333333 L 167.95104895105 149.8 L 213.96503496504 149.8 L 259.97902097902 137.316666666667 L 305.99300699301 135.53333333333302 L 352.00699300699 112.35 L 398.02097902098 124.833333333333 L 444.03496503496 112.35 L 490.04895104895 108.78333333333 L 536.06293706293 92.73333333333 L 582.07692307692 53.5 L 628.09090909091 69.55000000000001" class="highcharts-graph" data-z-index="1" stroke="#e75e70" stroke-width="2" stroke-linejoin="round" stroke-linecap="round"></path></g><g class="highcharts-markers highcharts-series-1 highcharts-line-series highcharts-color-10" data-z-index="0.1" opacity="1" transform="translate(40,99) scale(1 1)" clip-path="none" aria-hidden="false" role="region" tabindex="-1" style="outline: none;" aria-label="Erbschaften und Vermächtnisse, line 2 of 3 with 14 data points."><path fill="#e75e70" d="M 29 165 A 3 3 0 1 1 29.002999999500002 164.99999850000012 Z" stroke="#ffffff" stroke-width="0" opacity="0" class="highcharts-point highcharts-color-10" tabindex="-1" style="outline: none;" role="img" aria-label="x, 2009, 2,9. Erbschaften und Vermächtnisse."></path><path fill="#e75e70" d="M 75 156 A 3 3 0 1 1 75.0029999995 155.99999850000012 Z" stroke="#ffffff" stroke-width="0" opacity="0" class="highcharts-point highcharts-color-10" tabindex="-1" style="outline: none;" role="img" aria-label="x, 2010, 3,4. Erbschaften und Vermächtnisse."></path><path fill="#e75e70" d="M 121 155 A 3 3 0 1 1 121.0029999995 154.99999850000012 Z" stroke="#ffffff" stroke-width="0" opacity="0" class="highcharts-point highcharts-color-10" tabindex="-1" style="outline: none;" role="img" aria-label="x, 2011, 3,5. Erbschaften und Vermächtnisse."></path><path fill="#e75e70" d="M 167 153 A 3 3 0 1 1 167.0029999995 152.99999850000012 Z" stroke="#ffffff" stroke-width="0" opacity="0" class="highcharts-point highcharts-color-10" tabindex="-1" style="outline: none;" role="img" aria-label="x, 2012, 3,6. Erbschaften und Vermächtnisse."></path><path fill="#e75e70" d="M 213 153 A 3 3 0 1 1 213.0029999995 152.99999850000012 Z" stroke="#ffffff" stroke-width="0" opacity="0" class="highcharts-point highcharts-color-10" tabindex="-1" style="outline: none;" role="img" aria-label="x, 2013, 3,6. Erbschaften und Vermächtnisse."></path><path fill="#e75e70" d="M 259 140 A 3 3 0 1 1 259.0029999995 139.99999850000012 Z" stroke="#ffffff" stroke-width="0" opacity="0" class="highcharts-point highcharts-color-10" tabindex="-1" style="outline: none;" role="img" aria-label="x, 2014, 4,3. Erbschaften und Vermächtnisse."></path><path fill="#e75e70" d="M 305 139 A 3 3 0 1 1 305.0029999995 138.99999850000012 Z" stroke="#ffffff" stroke-width="0" opacity="0" class="highcharts-point highcharts-color-10" tabindex="-1" style="outline: none;" role="img" aria-label="x, 2015, 4,4. Erbschaften und Vermächtnisse."></path><path fill="#e75e70" d="M 352 115 A 3 3 0 1 1 352.0029999995 114.99999850000013 Z" stroke="#ffffff" stroke-width="0" opacity="0" class="highcharts-point highcharts-color-10" tabindex="-1" style="outline: none;" role="img" aria-label="x, 2016, 5,7. Erbschaften und Vermächtnisse."></path><path fill="#e75e70" d="M 398 128 A 3 3 0 1 1 398.0029999995 127.99999850000013 Z" stroke="#ffffff" stroke-width="0" opacity="0" class="highcharts-point highcharts-color-10" tabindex="-1" style="outline: none;" role="img" aria-label="x, 2017, 5,0. Erbschaften und Vermächtnisse."></path><path fill="#e75e70" d="M 444 115 A 3 3 0 1 1 444.0029999995 114.99999850000013 Z" stroke="#ffffff" stroke-width="0" opacity="0" class="highcharts-point highcharts-color-10" tabindex="-1" style="outline: none;" role="img" aria-label="x, 2018, 5,7. Erbschaften und Vermächtnisse."></path><path fill="#e75e70" d="M 490 112 A 3 3 0 1 1 490.0029999995 111.99999850000013 Z" stroke="#ffffff" stroke-width="0" opacity="0" class="highcharts-point highcharts-color-10" tabindex="-1" style="outline: none;" role="img" aria-label="x, 2019, 5,9. Erbschaften und Vermächtnisse."></path><path fill="#e75e70" d="M 536 96 A 3 3 0 1 1 536.0029999995 95.99999850000013 Z" stroke="#ffffff" stroke-width="0" opacity="0" class="highcharts-point highcharts-color-10" tabindex="-1" style="outline: none;" role="img" aria-label="x, 2020, 6,8. Erbschaften und Vermächtnisse."></path><path fill="#e75e70" d="M 582 57 A 3 3 0 1 1 582.0029999995 56.999998500000125 Z" stroke="#ffffff" stroke-width="0" opacity="0" class="highcharts-point highcharts-color-10" tabindex="-1" style="outline: none;" role="img" aria-label="x, 2021, 9,0. Erbschaften und Vermächtnisse."></path><path fill="#e75e70" d="M 628 73 A 3 3 0 1 1 628.0029999995 72.99999850000013 Z" stroke="#ffffff" stroke-width="0" opacity="0" class="highcharts-point highcharts-color-10" tabindex="-1" style="outline: none;" role="img" aria-label="x, 2022, 8,1. Erbschaften und Vermächtnisse."></path></g><g class="highcharts-series highcharts-series-2 highcharts-line-series highcharts-color-0" data-z-index="0.1" opacity="1" transform="translate(40,99) scale(1 1)" clip-path="url(#highcharts-mvtgp5s-68-)" aria-hidden="true"><path fill="none" d="M 29.909090909095 189.033333333333 L 75.92307692308 192.6 L 121.93706293707 201.516666666667 L 167.95104895105 203.3 L 213.96503496504 194.38333333333298 L 259.97902097902 194.38333333333298 L 305.99300699301 194.38333333333298 L 352.00699300699 194.38333333333298 L 398.02097902098 190.816666666667 L 444.03496503496 196.166666666667 L 490.04895104895 192.6 L 536.06293706293 181.9 L 582.07692307692 176.55 L 628.09090909091 155.15" class="highcharts-graph" data-z-index="1" stroke="#001e43" stroke-width="2" stroke-linejoin="round" stroke-linecap="round"></path></g><g class="highcharts-markers highcharts-series-2 highcharts-line-series highcharts-color-0" data-z-index="0.1" opacity="1" transform="translate(40,99) scale(1 1)" clip-path="none" aria-hidden="false" role="region" tabindex="-1" style="outline: none;" aria-label="Schenkungen, line 3 of 3 with 14 data points."><path fill="#001e43" d="M 29 192 A 3 3 0 1 1 29.002999999500002 191.99999850000012 Z" stroke="#ffffff" stroke-width="0" opacity="0" class="highcharts-point highcharts-color-0" tabindex="-1" style="outline: none;" role="img" aria-label="x, 2009, 1,4. Schenkungen."></path><path fill="#001e43" d="M 75 196 A 3 3 0 1 1 75.0029999995 195.99999850000012 Z" stroke="#ffffff" stroke-width="0" opacity="0" class="highcharts-point highcharts-color-0" tabindex="-1" style="outline: none;" role="img" aria-label="x, 2010, 1,2. Schenkungen."></path><path fill="#001e43" d="M 121 205 A 3 3 0 1 1 121.0029999995 204.99999850000012 Z" stroke="#ffffff" stroke-width="0" opacity="0" class="highcharts-point highcharts-color-0" tabindex="-1" style="outline: none;" role="img" aria-label="x, 2011, 0,7. Schenkungen."></path><path fill="#001e43" d="M 167 206 A 3 3 0 1 1 167.0029999995 205.99999850000012 Z" stroke="#ffffff" stroke-width="0" opacity="0" class="highcharts-point highcharts-color-0" tabindex="-1" style="outline: none;" role="img" aria-label="x, 2012, 0,6. Schenkungen."></path><path fill="#001e43" d="M 213 197 A 3 3 0 1 1 213.0029999995 196.99999850000012 Z" stroke="#ffffff" stroke-width="0" opacity="0" class="highcharts-point highcharts-color-0" tabindex="-1" style="outline: none;" role="img" aria-label="x, 2013, 1,1. Schenkungen."></path><path fill="#001e43" d="M 259 197 A 3 3 0 1 1 259.0029999995 196.99999850000012 Z" stroke="#ffffff" stroke-width="0" opacity="0" class="highcharts-point highcharts-color-0" tabindex="-1" style="outline: none;" role="img" aria-label="x, 2014, 1,1. Schenkungen."></path><path fill="#001e43" d="M 305 197 A 3 3 0 1 1 305.0029999995 196.99999850000012 Z" stroke="#ffffff" stroke-width="0" opacity="0" class="highcharts-point highcharts-color-0" tabindex="-1" style="outline: none;" role="img" aria-label="x, 2015, 1,1. Schenkungen."></path><path fill="#001e43" d="M 352 197 A 3 3 0 1 1 352.0029999995 196.99999850000012 Z" stroke="#ffffff" stroke-width="0" opacity="0" class="highcharts-point highcharts-color-0" tabindex="-1" style="outline: none;" role="img" aria-label="x, 2016, 1,1. Schenkungen."></path><path fill="#001e43" d="M 398 194 A 3 3 0 1 1 398.0029999995 193.99999850000012 Z" stroke="#ffffff" stroke-width="0" opacity="0" class="highcharts-point highcharts-color-0" tabindex="-1" style="outline: none;" role="img" aria-label="x, 2017, 1,3. Schenkungen."></path><path fill="#001e43" d="M 444 199 A 3 3 0 1 1 444.0029999995 198.99999850000012 Z" stroke="#ffffff" stroke-width="0" opacity="0" class="highcharts-point highcharts-color-0" tabindex="-1" style="outline: none;" role="img" aria-label="x, 2018, 1,0. Schenkungen."></path><path fill="#001e43" d="M 490 196 A 3 3 0 1 1 490.0029999995 195.99999850000012 Z" stroke="#ffffff" stroke-width="0" opacity="0" class="highcharts-point highcharts-color-0" tabindex="-1" style="outline: none;" role="img" aria-label="x, 2019, 1,2. Schenkungen."></path><path fill="#001e43" d="M 536 185 A 3 3 0 1 1 536.0029999995 184.99999850000012 Z" stroke="#ffffff" stroke-width="0" opacity="0" class="highcharts-point highcharts-color-0" tabindex="-1" style="outline: none;" role="img" aria-label="x, 2020, 1,8. Schenkungen."></path><path fill="#001e43" d="M 582 180 A 3 3 0 1 1 582.0029999995 179.99999850000012 Z" stroke="#ffffff" stroke-width="0" opacity="0" class="highcharts-point highcharts-color-0" tabindex="-1" style="outline: none;" role="img" aria-label="x, 2021, 2,1. Schenkungen."></path><path fill="#001e43" d="M 628 158 A 3 3 0 1 1 628.0029999995 157.99999850000012 Z" stroke="#ffffff" stroke-width="0" opacity="0" class="highcharts-point highcharts-color-0" tabindex="-1" style="outline: none;" role="img" aria-label="x, 2022, 3,3. Schenkungen."></path></g></g><text x="40" text-anchor="start" class="highcharts-title" data-z-index="4" style="color: rgb(36, 36, 36); font-size: 15px; font-family: &quot;Statis Sans&quot;, sans-serif; font-weight: bold; fill: rgb(36, 36, 36);" y="55" aria-hidden="true">Festgesetzte Steuer nach Festsetzungsjahren</text><text x="40" text-anchor="start" class="highcharts-subtitle" data-z-index="4" style="color: rgb(36, 36, 36); font-family: &quot;Statis Sans&quot;, sans-serif; font-size: 13.3px; fill: rgb(36, 36, 36);" y="73" aria-hidden="true">in Milliarden Euro</text><text x="40" text-anchor="start" class="highcharts-caption" data-z-index="4" style="color: rgb(36, 36, 36); font-size: 11.7px; fill: rgb(36, 36, 36);" y="393" aria-hidden="true"></text><g class="highcharts-legend highcharts-no-tooltip" data-z-index="7" transform="translate(25,337)" aria-hidden="true"><rect fill="none" class="highcharts-legend-box" rx="0" ry="0" stroke="#999999" stroke-width="0" x="0" y="0" width="464" height="45"></rect><g data-z-index="1"><g><g class="highcharts-legend-item highcharts-line-series highcharts-color-2 highcharts-series-0" data-z-index="1" transform="translate(15,10)"><path fill="none" class="highcharts-graph" stroke-width="2" stroke-linecap="round" d="M 1 14 L 15 14" stroke="#266ec3"></path><text x="21" style="color: rgb(36, 36, 36); cursor: pointer; font-size: 13.3px; font-family: &quot;Statis Sans&quot;, sans-serif; fill: rgb(36, 36, 36);" text-anchor="start" data-z-index="2" y="18">Insgesamt</text></g><g class="highcharts-legend-item highcharts-line-series highcharts-color-10 highcharts-series-1" data-z-index="1" transform="translate(118.19638438972211,10)"><path fill="none" class="highcharts-graph" stroke-width="2" stroke-linecap="round" d="M 1 14 L 15 14" stroke="#e75e70"></path><text x="21" y="18" style="color: rgb(36, 36, 36); cursor: pointer; font-size: 13.3px; font-family: &quot;Statis Sans&quot;, sans-serif; fill: rgb(36, 36, 36);" text-anchor="start" data-z-index="2">Erbschaften und Vermächtnisse</text></g><g class="highcharts-legend-item highcharts-line-series highcharts-color-0 highcharts-series-2" data-z-index="1" transform="translate(348.51767225479034,10)"><path fill="none" class="highcharts-graph" stroke-width="2" stroke-linecap="round" d="M 1 14 L 15 14" stroke="#001e43"></path><text x="21" y="18" style="color: rgb(36, 36, 36); cursor: pointer; font-size: 13.3px; font-family: &quot;Statis Sans&quot;, sans-serif; fill: rgb(36, 36, 36);" text-anchor="start" data-z-index="2">Schenkungen</text></g></g></g></g><g class="highcharts-axis-labels highcharts-xaxis-labels" data-z-index="7" aria-hidden="true"><text x="115.92307692308" style="color: rgb(36, 36, 36); cursor: default; font-size: 13.3px; font-family: &quot;Statis Sans&quot;, sans-serif; fill: rgb(36, 36, 36);" text-anchor="middle" transform="translate(0,0)" y="334" opacity="1">2010</text><text x="207.95104895105" style="color: rgb(36, 36, 36); cursor: default; font-size: 13.3px; font-family: &quot;Statis Sans&quot;, sans-serif; fill: rgb(36, 36, 36);" text-anchor="middle" transform="translate(0,0)" y="334" opacity="1">2012</text><text x="299.97902097902" style="color: rgb(36, 36, 36); cursor: default; font-size: 13.3px; font-family: &quot;Statis Sans&quot;, sans-serif; fill: rgb(36, 36, 36);" text-anchor="middle" transform="translate(0,0)" y="334" opacity="1">2014</text><text x="392.00699300699" style="color: rgb(36, 36, 36); cursor: default; font-size: 13.3px; font-family: &quot;Statis Sans&quot;, sans-serif; fill: rgb(36, 36, 36);" text-anchor="middle" transform="translate(0,0)" y="334" opacity="1">2016</text><text x="484.03496503496" style="color: rgb(36, 36, 36); cursor: default; font-size: 13.3px; font-family: &quot;Statis Sans&quot;, sans-serif; fill: rgb(36, 36, 36);" text-anchor="middle" transform="translate(0,0)" y="334" opacity="1">2018</text><text x="576.06293706293" style="color: rgb(36, 36, 36); cursor: default; font-size: 13.3px; font-family: &quot;Statis Sans&quot;, sans-serif; fill: rgb(36, 36, 36);" text-anchor="middle" transform="translate(0,0)" y="334" opacity="1">2020</text><text x="668.09090909091" style="color: rgb(36, 36, 36); cursor: default; font-size: 13.3px; font-family: &quot;Statis Sans&quot;, sans-serif; fill: rgb(36, 36, 36);" text-anchor="middle" transform="translate(0,0)" y="334" opacity="1">2022</text></g><g class="highcharts-axis-labels highcharts-yaxis-labels" data-z-index="7" aria-hidden="true"><text x="727.8960433573045" style="color: rgb(36, 36, 36); cursor: default; font-size: 13.3px; font-family: &quot;Statis Sans&quot;, sans-serif; fill: rgb(36, 36, 36);" text-anchor="end" transform="translate(0,0)" y="318" opacity="1">0</text><text x="727.8960433573045" style="color: rgb(36, 36, 36); cursor: default; font-size: 13.3px; font-family: &quot;Statis Sans&quot;, sans-serif; fill: rgb(36, 36, 36);" text-anchor="end" transform="translate(0,0)" y="282" opacity="1">2</text><text x="727.8960433573045" style="color: rgb(36, 36, 36); cursor: default; font-size: 13.3px; font-family: &quot;Statis Sans&quot;, sans-serif; fill: rgb(36, 36, 36);" text-anchor="end" transform="translate(0,0)" y="247" opacity="1">4</text><text x="727.8960433573045" style="color: rgb(36, 36, 36); cursor: default; font-size: 13.3px; font-family: &quot;Statis Sans&quot;, sans-serif; fill: rgb(36, 36, 36);" text-anchor="end" transform="translate(0,0)" y="211" opacity="1">6</text><text x="727.8960433573045" style="color: rgb(36, 36, 36); cursor: default; font-size: 13.3px; font-family: &quot;Statis Sans&quot;, sans-serif; fill: rgb(36, 36, 36);" text-anchor="end" transform="translate(0,0)" y="175" opacity="1">8</text><text x="727.8960433573045" style="color: rgb(36, 36, 36); cursor: default; font-size: 13.3px; font-family: &quot;Statis Sans&quot;, sans-serif; fill: rgb(36, 36, 36);" text-anchor="end" transform="translate(0,0)" y="140" opacity="1">10</text><text x="727.8960433573045" style="color: rgb(36, 36, 36); cursor: default; font-size: 13.3px; font-family: &quot;Statis Sans&quot;, sans-serif; fill: rgb(36, 36, 36);" text-anchor="end" transform="translate(0,0)" y="104" opacity="1">12</text></g><g class="highcharts-control-points" data-z-index="99" clip-path="url(#highcharts-mvtgp5s-97-)" aria-hidden="true"></g></svg>